<svg xmlns="http://www.w3.org/2000/svg" xmlns:xlink="http://www.w3.org/1999/xlink" viewBox="0,0,256,256" width="100px" height="100px" fill-rule="nonzero"><g fill="#0affa9" fill-rule="nonzero" stroke="none" stroke-width="1" stroke-linecap="butt" stroke-linejoin="miter" stroke-miterlimit="10" stroke-dasharray="" stroke-dashoffset="0" font-family="none" font-weight="none" font-size="none" text-anchor="none" style="mix-blend-mode: normal"><g transform="scale(2,2)"><path d="M14,1c-7.2,0 -13,5.8 -13,13v100c0,7.2 5.8,13 13,13h100c7.2,0 13,-5.8 13,-13v-100c0,-7.2 -5.8,-13 -13,-13zM14,7h100c3.9,0 7,3.1 7,7v15h-114v-15c0,-3.9 3.1,-7 7,-7zM18,15c-1.7,0 -3,1.3 -3,3c0,1.7 1.3,3 3,3h4c1.7,0 3,-1.3 3,-3c0,-1.7 -1.3,-3 -3,-3zM34,15c-1.7,0 -3,1.3 -3,3c0,1.7 1.3,3 3,3h4c1.7,0 3,-1.3 3,-3c0,-1.7 -1.3,-3 -3,-3zM7,35h114v79c0,3.9 -3.1,7 -7,7h-100c-3.9,0 -7,-3.1 -7,-7zM44,59c-2.6,0 -4.80039,1.69922 -5.40039,4.19922l-7.5,30.10156c-0.4,1.6 0.60117,3.19961 2.20117,3.59961c1.6,0.4 3.19961,-0.60117 3.59961,-2.20117l1.40039,-5.79883c0.2,0 0.39961,0.09961 0.59961,0.09961h10.69922l1.40039,5.69922c0.3,1.4 1.60039,2.30078 2.90039,2.30078c0.2,0 0.49922,0.00039 0.69922,-0.09961c1.6,-0.4 2.60117,-1.99961 2.20117,-3.59961l-7.5,-30.10156c-0.5,-2.5 -2.70078,-4.19922 -5.30078,-4.19922zM65,59c-1.7,0 -3,1.3 -3,3v32c0,1.7 1.3,3 3,3c1.7,0 3,-1.3 3,-3v-8h4.5c7.4,0 13.5,-6.1 13.5,-13.5c0,-7.4 -6.1,-13.5 -13.5,-13.5zM94,59c-1.7,0 -3,1.3 -3,3v32c0,1.7 1.3,3 3,3c1.7,0 3,-1.3 3,-3v-32c0,-1.7 -1.3,-3 -3,-3zM68,65h4.5c4.1,0 7.5,3.4 7.5,7.5c0,4.1 -3.4,7.5 -7.5,7.5h-4.5zM44,66.40039l4.19922,16.59961h-8.29883z"></path></g></g></svg>