<svg xmlns="http://www.w3.org/2000/svg" xmlns:xlink="http://www.w3.org/1999/xlink" viewBox="0,0,256,256" width="100px" height="100px" fill-rule="nonzero"><defs><linearGradient x1="32" y1="12.908" x2="32" y2="51.288" gradientUnits="userSpaceOnUse" id="color-1"><stop offset="0" stop-color="#0affa9"></stop><stop offset="1" stop-color="#0affa9"></stop></linearGradient><linearGradient x1="32.001" y1="-3.217" x2="32.001" y2="62.262" gradientUnits="userSpaceOnUse" id="color-2"><stop offset="0" stop-color="#0affa9"></stop><stop offset="1" stop-color="#0affa9"></stop></linearGradient></defs><g fill="none" fill-rule="nonzero" stroke="none" stroke-width="1" stroke-linecap="butt" stroke-linejoin="miter" stroke-miterlimit="10" stroke-dasharray="" stroke-dashoffset="0" font-family="none" font-weight="none" font-size="none" text-anchor="none" style="mix-blend-mode: normal"><g transform="scale(4,4)"><path d="M32,51c-10.493,0 -19,-8.507 -19,-19c0,-10.493 8.507,-19 19,-19c10.493,0 19,8.507 19,19c-0.012,10.489 -8.511,18.988 -19,19zM32,15c-9.389,0 -17,7.611 -17,17c0,9.389 7.611,17 17,17c9.389,0 17,-7.611 17,-17c-0.011,-9.384 -7.616,-16.989 -17,-17z" fill="url(#color-1)"></path><path d="M61.948,30.246c-0.108,-1.807 -1.459,-3.296 -3.248,-3.579c-1.017,-0.172 -2.229,-0.369 -3.229,-0.531l-0.231,-0.036c-0.624,-0.098 -1.138,-0.543 -1.325,-1.146c-0.376,-1.196 -0.854,-2.357 -1.427,-3.472c-0.294,-0.559 -0.243,-1.236 0.131,-1.745c0.6,-0.856 1.387,-1.939 2.035,-2.836c1.071,-1.474 0.97,-3.496 -0.242,-4.856c-0.779,-0.864 -1.605,-1.686 -2.473,-2.46c-1.354,-1.203 -3.363,-1.301 -4.828,-0.236c-0.906,0.645 -2,1.431 -2.851,2.047c-0.51,0.372 -1.188,0.421 -1.746,0.126c-1.112,-0.578 -2.271,-1.061 -3.464,-1.444c-0.603,-0.188 -1.046,-0.703 -1.142,-1.327c-0.176,-1.033 -0.39,-2.352 -0.566,-3.444c-0.285,-1.798 -1.783,-3.155 -3.6,-3.262c-1.162,-0.06 -2.327,-0.057 -3.489,0.009c-1.809,0.105 -3.301,1.456 -3.585,3.246c-0.172,1.017 -0.369,2.229 -0.531,3.229l-0.037,0.231c-0.098,0.623 -0.542,1.137 -1.145,1.324c-1.196,0.377 -2.357,0.855 -3.472,1.428c-0.559,0.295 -1.237,0.244 -1.746,-0.131c-0.855,-0.6 -1.938,-1.388 -2.836,-2.035c-1.474,-1.072 -3.495,-0.971 -4.855,0.242c-0.865,0.779 -1.686,1.604 -2.46,2.473c-1.201,1.354 -1.3,3.362 -0.237,4.827c0.646,0.907 1.431,2 2.048,2.851c0.372,0.511 0.42,1.188 0.125,1.747c-0.578,1.112 -1.061,2.271 -1.444,3.464c-0.188,0.602 -0.702,1.045 -1.326,1.141c-1.034,0.177 -2.352,0.39 -3.446,0.567c-1.8,0.285 -3.157,1.786 -3.262,3.605c-0.061,1.162 -0.058,2.327 0.009,3.489c0.109,1.807 1.459,3.296 3.247,3.58c1.017,0.172 2.229,0.368 3.229,0.531l0.235,0.037c0.623,0.099 1.137,0.543 1.324,1.146c0.377,1.196 0.854,2.357 1.427,3.472c0.294,0.559 0.243,1.236 -0.131,1.745c-0.6,0.856 -1.387,1.939 -2.035,2.837c-1.071,1.474 -0.97,3.495 0.242,4.855c0.779,0.864 1.605,1.685 2.473,2.46c1.355,1.201 3.362,1.299 4.828,0.237c0.906,-0.646 2,-1.431 2.851,-2.048c0.51,-0.372 1.188,-0.42 1.746,-0.126c1.112,0.579 2.271,1.062 3.465,1.445c0.602,0.188 1.045,0.703 1.141,1.326c0.176,1.034 0.39,2.352 0.566,3.446c0.285,1.8 1.786,3.158 3.606,3.262c0.561,0.029 1.118,0.043 1.673,0.043c0.613,0 1.218,-0.018 1.815,-0.053c1.807,-0.108 3.296,-1.458 3.58,-3.246c0.172,-1.016 0.369,-2.228 0.531,-3.228l0.038,-0.235c0.099,-0.623 0.542,-1.137 1.145,-1.324c1.196,-0.377 2.357,-0.855 3.472,-1.428c0.559,-0.293 1.237,-0.242 1.746,0.131c0.855,0.605 1.938,1.388 2.836,2.036c1.474,1.071 3.495,0.97 4.855,-0.242c0.864,-0.779 1.686,-1.605 2.46,-2.474c1.201,-1.354 1.3,-3.362 0.237,-4.827c-0.646,-0.907 -1.431,-2 -2.048,-2.851c-0.372,-0.511 -0.42,-1.189 -0.125,-1.747c0.578,-1.112 1.061,-2.271 1.444,-3.464c0.188,-0.603 0.703,-1.046 1.327,-1.141c1.033,-0.177 2.352,-0.39 3.445,-0.567c1.8,-0.285 3.158,-1.786 3.262,-3.605c0.06,-1.162 0.056,-2.327 -0.012,-3.489zM59.739,33.612c-0.048,0.778 -0.63,1.418 -1.4,1.538c-1.1,0.176 -2.427,0.391 -3.456,0.567c-1.448,0.23 -2.641,1.261 -3.078,2.661c-0.344,1.071 -0.779,2.111 -1.3,3.108c-0.687,1.303 -0.574,2.884 0.292,4.076c0.615,0.85 1.4,1.936 2.043,2.844c0.456,0.624 0.417,1.481 -0.094,2.06c-0.716,0.803 -1.475,1.566 -2.274,2.287c-0.583,0.515 -1.446,0.557 -2.076,0.1c-0.9,-0.652 -1.993,-1.439 -2.845,-2.041c-1.186,-0.864 -2.76,-0.98 -4.06,-0.3c-1,0.514 -2.042,0.943 -3.114,1.28c-1.407,0.436 -2.445,1.634 -2.675,3.089l-0.038,0.234c-0.161,0.995 -0.357,2.2 -0.529,3.221c-0.119,0.763 -0.753,1.341 -1.524,1.39c-1.074,0.061 -2.151,0.064 -3.226,0.009c-0.778,-0.048 -1.417,-0.63 -1.537,-1.4c-0.177,-1.1 -0.392,-2.426 -0.568,-3.455c-0.229,-1.449 -1.261,-2.642 -2.661,-3.079c-1.071,-0.344 -2.111,-0.779 -3.108,-1.3c-1.303,-0.687 -2.884,-0.573 -4.076,0.292c-0.85,0.614 -1.935,1.4 -2.844,2.043c-0.624,0.456 -1.48,0.417 -2.06,-0.094c-0.803,-0.717 -1.566,-1.476 -2.287,-2.275c-0.516,-0.583 -0.557,-1.445 -0.1,-2.075c0.652,-0.9 1.439,-1.993 2.041,-2.846c0.865,-1.185 0.981,-2.759 0.3,-4.059c-0.514,-1 -0.942,-2.042 -1.28,-3.114c-0.436,-1.408 -1.634,-2.445 -3.089,-2.676l-0.234,-0.038c-1,-0.161 -2.2,-0.356 -3.221,-0.529c-0.763,-0.119 -1.341,-0.753 -1.39,-1.524c-0.061,-1.074 -0.064,-2.151 -0.009,-3.225c0.048,-0.778 0.63,-1.417 1.4,-1.538c1.1,-0.177 2.426,-0.391 3.455,-0.568c1.448,-0.226 2.643,-1.254 3.083,-2.652c0.344,-1.071 0.779,-2.11 1.3,-3.107c0.687,-1.304 0.573,-2.885 -0.293,-4.077c-0.614,-0.849 -1.4,-1.935 -2.043,-2.844c-0.454,-0.625 -0.413,-1.482 0.1,-2.06c0.716,-0.803 1.475,-1.566 2.274,-2.286c0.582,-0.517 1.446,-0.558 2.075,-0.1c0.9,0.652 1.993,1.439 2.846,2.041c1.185,0.865 2.759,0.982 4.059,0.3c1,-0.514 2.042,-0.942 3.115,-1.279c1.405,-0.44 2.439,-1.639 2.667,-3.093l0.038,-0.235c0.161,-0.994 0.356,-2.2 0.529,-3.22c0.119,-0.763 0.753,-1.341 1.524,-1.39c1.074,-0.061 2.151,-0.064 3.225,-0.009c0.778,0.048 1.418,0.63 1.538,1.4c0.177,1.1 0.391,2.427 0.568,3.456c0.228,1.449 1.258,2.643 2.658,3.08c1.071,0.344 2.11,0.779 3.107,1.3c1.304,0.686 2.884,0.573 4.077,-0.292c0.85,-0.615 1.935,-1.4 2.844,-2.043c0.624,-0.456 1.48,-0.417 2.06,0.094c0.802,0.717 1.565,1.476 2.286,2.274c0.517,0.583 0.558,1.446 0.1,2.076c-0.652,0.9 -1.439,1.993 -2.041,2.845c-0.864,1.186 -0.981,2.76 -0.3,4.06c0.517,0.997 0.947,2.036 1.287,3.106c0.435,1.408 1.63,2.446 3.085,2.68l0.235,0.037c0.994,0.161 2.2,0.357 3.221,0.529c0.763,0.12 1.34,0.753 1.39,1.524c0.061,1.073 0.063,2.149 0.008,3.222zM24.85,24.767l-6.211,5.767c-0.407,0.378 -0.639,0.912 -0.639,1.466c0,0.554 0.232,1.088 0.639,1.466l6.211,5.767l1.361,-1.466l-6.211,-5.767l6.211,-5.767zM39.15,24.767l-1.361,1.466l6.211,5.767l-6.211,5.767l1.361,1.466l6.211,-5.767c0.407,-0.378 0.639,-0.912 0.639,-1.466c0,-0.554 -0.232,-1.088 -0.639,-1.466zM27.559,42.164l1.883,0.673l7.5,-21l-1.883,-0.673z" fill="url(#color-2)"></path></g></g></svg>