<svg xmlns="http://www.w3.org/2000/svg" xmlns:xlink="http://www.w3.org/1999/xlink" viewBox="0,0,256,256" width="100px" height="100px" fill-rule="nonzero"><g fill="#0affa9" fill-rule="nonzero" stroke="none" stroke-width="1" stroke-linecap="butt" stroke-linejoin="miter" stroke-miterlimit="10" stroke-dasharray="" stroke-dashoffset="0" font-family="none" font-weight="none" font-size="none" text-anchor="none" style="mix-blend-mode: normal"><g transform="scale(8,8)"><path d="M31,10c0.55228,0 1,-0.44772 1,-1v-6c0,-1.65685 -1.34315,-3 -3,-3h-26c-1.65685,0 -3,1.34315 -3,3v26c0,1.65685 1.34315,3 3,3h26c1.65685,0 3,-1.34315 3,-3v-16c0,-0.55228 -0.44772,-1 -1,-1c-0.55228,0 -1,0.44772 -1,1v16c0,0.55228 -0.44772,1 -1,1h-26c-0.55228,0 -1,-0.44772 -1,-1v-19zM2,3c0,-0.55228 0.44772,-1 1,-1h26c0.55228,0 1,0.44772 1,1v5h-28z"></path><path d="M27,4c-0.55228,0 -1,0.44772 -1,1c0,0.55228 0.44772,1 1,1c0.55228,0 1,-0.44772 1,-1c0,-0.55228 -0.44772,-1 -1,-1z"></path><path d="M23,4c-0.55228,0 -1,0.44772 -1,1c0,0.55228 0.44772,1 1,1c0.55228,0 1,-0.44772 1,-1c0,-0.55228 -0.44772,-1 -1,-1z"></path><path d="M19,4c-0.55228,0 -1,0.44772 -1,1c0,0.55228 0.44772,1 1,1c0.55228,0 1,-0.44772 1,-1c0,-0.55228 -0.44772,-1 -1,-1z"></path><path d="M11,24c-0.2658,0.00154 -0.52128,-0.10281 -0.71,-0.29l-3,-3c-0.18931,-0.18777 -0.2958,-0.44336 -0.2958,-0.71c0,-0.26664 0.10649,-0.52223 0.2958,-0.71l3,-3c0.39212,-0.39212 1.02788,-0.39212 1.42,0c0.39212,0.39212 0.39212,1.02788 0,1.42l-2.3,2.29l2.3,2.29c0.28846,0.28609 0.37516,0.71827 0.21937,1.09348c-0.15579,0.37521 -0.52311,0.61888 -0.92937,0.61652z"></path><path d="M21,24c-0.40627,0.00236 -0.77358,-0.2413 -0.92937,-0.61652c-0.15579,-0.37521 -0.06909,-0.80739 0.21937,-1.09348l2.3,-2.29l-2.3,-2.29c-0.39212,-0.39212 -0.39212,-1.02788 0,-1.42c0.39212,-0.39212 1.02788,-0.39212 1.42,0l3,3c0.18931,0.18777 0.2958,0.44336 0.2958,0.71c0,0.26664 -0.10649,0.52223 -0.2958,0.71l-3,3c-0.18872,0.18719 -0.4442,0.29154 -0.71,0.29z"></path><path d="M15,25c-0.31257,0.00917 -0.61144,-0.1284 -0.80775,-0.37182c-0.1963,-0.24342 -0.26744,-0.56465 -0.19225,-0.86818l2,-8c0.07418,-0.35892 0.33877,-0.64851 0.68956,-0.7547c0.35079,-0.10619 0.73156,-0.01198 0.99236,0.24553c0.2608,0.25751 0.35983,0.63706 0.25808,0.98917l-2,8c-0.10743,0.43547 -0.49168,0.74614 -0.94,0.76z"></path></g></g></svg>