<svg xmlns="http://www.w3.org/2000/svg"  style="fill: #0affa9" viewBox="0 0 512 512" width="100px" height="100px"><path d="M 67.005859 102.69922 A 30.034 30.034 0 0 0 37.005859 132.69922 L 37.005859 137.14844 L 233.33398 288.16797 A 39.969 39.969 0 0 0 282.58008 288.20898 L 474.99414 137.19336 L 474.99414 132.69922 A 30.034 30.034 0 0 0 444.99414 102.69922 L 67.005859 102.69922 z M 37.005859 162.38477 L 37.005859 371.75586 L 159.44336 256.56445 L 37.005859 162.38477 z M 474.99414 162.61719 L 356.0957 255.93359 L 474.99414 371.35156 L 474.99414 162.61719 z M 340.21875 268.40039 L 294.90039 303.96094 A 59.935 59.935 0 0 1 221.08398 303.98047 L 175.5 268.91797 L 41.46875 395.01758 A 30.007 30.007 0 0 0 67.005859 409.30078 L 444.99414 409.30078 A 30.009 30.009 0 0 0 470.58008 394.94336 L 340.21875 268.40039 z"/></svg>