<?xml version="1.0" encoding="utf-8"?>
<!-- Generator: Adobe Illustrator 22.0.1, SVG Export Plug-In . SVG Version: 6.00 Build 0)  -->
<svg version="1.1" id="Layer_1" xmlns="http://www.w3.org/2000/svg" xmlns:xlink="http://www.w3.org/1999/xlink" x="0px" y="0px"
	 viewBox="0 0 53 53" fill="#fff" xml:space="preserve">
<g>
	<g>
		<path d="M47.784668,14.5c0-0.0083008-0.0057983-0.0150146-0.0062256-0.0231934
			c-0.003479-0.0776367-0.019165-0.1550293-0.0606689-0.2268066c-0.041626-0.0717773-0.1009521-0.1241455-0.1664429-0.1660156
			c-0.0067749-0.0043945-0.0096436-0.0125732-0.0166626-0.0166016l-20.784668-12
			c-0.006958-0.0040283-0.0154419-0.0024414-0.022583-0.0061035C26.6583862,2.0253906,26.583313,2,26.5,2
			s-0.1583862,0.0253906-0.227417,0.0612793C26.2654419,2.0649414,26.256958,2.0633545,26.25,2.0673828l-20.784668,12
			c-0.006897,0.0039063-0.0095825,0.0119629-0.0162354,0.0162354C5.3834839,14.1254883,5.3240356,14.1779785,5.2822266,14.25
			c-0.0415039,0.0717773-0.0571899,0.1491699-0.0606689,0.2268066C5.2211304,14.4849854,5.215332,14.4916992,5.215332,14.5v24
			c0,0.0083008,0.0057983,0.0150146,0.0062256,0.0231934c0.003479,0.0776367,0.019165,0.1550293,0.0606689,0.2268066
			c0.0021973,0.0039063,0.0065918,0.005127,0.0089111,0.0087891c0.0428467,0.0700684,0.1005249,0.1315918,0.1741943,0.1738281
			l0.0028687,0.001709c0.0006714,0.0002441,0.0011597,0.0006104,0.0018311,0.0009766L26.25,50.9326172
			c0.006958,0.0040283,0.0154419,0.0024414,0.022583,0.0061035C26.3416138,50.9746094,26.416687,51,26.5,51
			s0.1583862-0.0253906,0.227417-0.0612793c0.0071411-0.0036621,0.015625-0.0020752,0.022583-0.0061035l20.7799683-11.9973145
			c0.0006714-0.0003662,0.0011597-0.0007324,0.0018311-0.0009766l0.0028687-0.001709
			c0.0736694-0.0422363,0.1313477-0.1037598,0.1741943-0.1738281c0.0023193-0.0036621,0.0067139-0.0048828,0.0089111-0.0087891
			c0.0415039-0.0717773,0.0571899-0.1491699,0.0606689-0.2268066C47.7788696,38.5150146,47.784668,38.5083008,47.784668,38.5V14.5z
			M6.215332,15.3656006l7.298645,4.2138672c-0.0822754,0.2301025-0.1351318,0.4744873-0.1351318,0.7330322
			c0,1.0354004,0.7214355,1.8979492,1.687561,2.1247559v8.1254883c-0.9661255,0.2268066-1.687561,1.0893555-1.687561,2.1247559
			c0,0.2585449,0.0528564,0.5029297,0.1351318,0.7330322l-7.298645,4.2138672V15.3656006z M31.8788452,33.5625
			c-1.2081299,0-2.1875,0.9793701-2.1875,2.1875c0,0.3034668,0.0620728,0.5922852,0.1737061,0.8548584L27,38.2591553v-9.6345215
			c0.4249878-0.0998535,0.8002815-0.3223877,1.0895386-0.6300049l8.3441162,4.8175049l-2.8147583,1.6252441
			C33.2195435,33.9090576,32.5921631,33.5625,31.8788452,33.5625z M35.3153076,20.8334961l-7.225769,4.171875
			C27.8002815,24.6977539,27.4249878,24.4752197,27,24.3753662v-9.6345215l8.3809204,4.8392334
			c-0.0821533,0.2299805-0.1349487,0.4741211-0.1349487,0.7324219
			C35.2459717,20.4929199,35.2741089,20.6657715,35.3153076,20.8334961z M16.0664063,30.5627441v-8.1254883
			c0.4619751-0.1086426,0.8621216-0.3649902,1.1595459-0.7145996l7.1885376,4.1501465
			C24.3543091,26.0727539,24.3122559,26.2805176,24.3122559,26.5s0.0420532,0.4272461,0.1022339,0.6271973l-7.1885376,4.1501465
			C16.9285278,30.9277344,16.5283813,30.6713867,16.0664063,30.5627441z M26,24.3752441
			c-0.4251709,0.0996094-0.8005981,0.3222656-1.0899048,0.6298828l-7.2255249-4.1716309
			c0.0411987-0.1678467,0.0692749-0.3405762,0.0692749-0.5209961c0-0.2583008-0.0527344-0.5024414-0.1348877-0.7324219
			L26,14.7408447V24.3752441z M17.6845703,32.1665039l7.2255249-4.1716309
			C25.1994019,28.3024902,25.5748291,28.5251465,26,28.6247559v9.6343994l-8.3810425-4.8392334
			c0.0821533-0.2299805,0.1348877-0.4741211,0.1348877-0.7324219C17.7538452,32.5070801,17.725769,32.3343506,17.6845703,32.1665039
			z M28.585083,27.1268311C28.6452026,26.927002,28.6872559,26.7194824,28.6872559,26.5s-0.0420532-0.427002-0.1021729-0.6268311
			l7.1888428-4.1505127c0.2974854,0.3496094,0.6976929,0.6062012,1.159668,0.7145996v9.5095215L28.585083,27.1268311z
			 M38.9459839,18.7373047C38.5528564,18.3598633,38.0215454,18.125,37.4334717,18.125
			c-0.5880127,0-1.1192627,0.2348633-1.5123901,0.6123047L27,13.5866699v-3.2119141
			C27.9660645,10.1477051,28.687439,9.2854004,28.687439,8.25S27.9660645,6.3522949,27,6.1252441V3.3658447l19.284668,11.1345215
			L38.9459839,18.7373047z M26,6.1252441C25.0338745,6.3520508,24.312439,7.2145996,24.312439,8.25
			S25.0338745,10.1479492,26,10.3747559v3.2119141l-8.9212036,5.1506348C16.6856689,18.3598633,16.1544189,18.125,15.5663452,18.125
			c-0.5880127,0-1.1193237,0.2348633-1.5124512,0.6123047l-7.338562-4.2369385L26,3.3658447V6.1252441z M14.053894,34.2626953
			C14.4470215,34.6401367,14.9783325,34.875,15.5663452,34.875c0.5880737,0,1.1193237-0.2348633,1.5124512-0.6123047L26,39.4133301
			v2.0869141c-0.9661255,0.2268066-1.687561,1.0893555-1.687561,2.1247559S25.0338745,45.5229492,26,45.7497559v3.8843994
			L6.715332,38.4996338L14.053894,34.2626953z M27,45.7497559c0.9660645-0.2270508,1.687439-1.0893555,1.687439-2.1247559
			S27.9660645,41.7272949,27,41.5002441v-2.0869141l3.4694824-2.0031738
			c0.3815308,0.3243408,0.8693848,0.5273438,1.4093628,0.5273438c1.2081299,0,2.1875-0.9793701,2.1875-2.1875
			c0-0.1347656-0.0162964-0.2655029-0.0396729-0.3935547l3.4069214-1.967041l2.2085571,1.2751465
			c-0.0068359,0.0703125-0.0211792,0.1384277-0.0211792,0.2104492c0,1.2081299,0.9793701,2.1875,2.1875,2.1875
			c0.4755249,0,0.9123535-0.1555176,1.2711792-0.4133301l3.2050171,1.8504639L27,49.6341553V45.7497559z M43.7420044,35.8776855
			c0.1568604-0.3016357,0.2539673-0.6391602,0.2539673-1.0026855c0-1.2081299-0.9793701-2.1875-2.1875-2.1875
			c-0.774353,0-1.4508057,0.4047852-1.8395996,1.0117188l-2.0352783-1.1750488V22.4372559
			c0.9660645-0.2270508,1.6873779-1.0893555,1.6873779-2.1247559c0-0.2584229-0.0527954-0.5026855-0.1350708-0.7329102
			l7.2987671-4.2139893v22.2687988L43.7420044,35.8776855z"/>
	</g>
</g>
</svg>