<svg xmlns="http://www.w3.org/2000/svg" xmlns:xlink="http://www.w3.org/1999/xlink" viewBox="0,0,256,256" width="100px" height="100px" fill-rule="nonzero"><g fill="#ffffff" fill-rule="nonzero" stroke="none" stroke-width="1" stroke-linecap="butt" stroke-linejoin="miter" stroke-miterlimit="10" stroke-dasharray="" stroke-dashoffset="0" font-family="none" font-weight="none" font-size="none" text-anchor="none" style="mix-blend-mode: normal"><g transform="scale(3.76471,3.76471)"><path d="M5.36914,1.99805c-0.55005,0 -1,0.4502 -1,1v4.52148h-1.36719c-0.55225,0 -1,0.44775 -1,1c0,0.55225 0.44775,1 1,1h1.36719v7.71875h-1.36719c-0.55225,0 -1,0.44775 -1,1c0,0.55225 0.44775,1 1,1h1.36719v5.42969v2.28906h-1.36719c-0.55225,0 -1,0.44824 -1,1c0,0.55273 0.44775,1 1,1h1.36719v7.71875h-1.36719c-0.55225,0 -1,0.44824 -1,1c0,0.55273 0.44775,1 1,1h1.36719v7.71875h-1.36719c-0.55225,0 -1,0.44824 -1,1c0,0.55273 0.44775,1 1,1h1.36719v7.71875h-1.36719c-0.55225,0 -1,0.44824 -1,1c0,0.55273 0.44775,1 1,1h1.36719v4.51563c0,0.5498 0.44995,1 1,1h4.51953v1.37305c0,0.55273 0.44775,1 1,1c0.55225,0 1,-0.44727 1,-1v-1.37305h7.71875v1.37305c0,0.55273 0.44775,1 1,1c0.55225,0 1,-0.44727 1,-1v-1.37305h7.7207v1.36914c0,0.56006 0.44995,1 1,1c0.55005,0 1,-0.43994 1,-1v-1.36914h7.71875v1.37305c0,0.55273 0.44775,1 1,1c0.55225,0 1,-0.44727 1,-1v-1.37305h7.71875v1.37305c0,0.55273 0.44775,1 1,1c0.55225,0 1,-0.44727 1,-1v-1.37305h7.71875v1.37305c0,0.55273 0.44775,1 1,1c0.55225,0 1,-0.44727 1,-1v-1.37305h4.51367c0.55005,0 1,-0.4502 1,-1v-8.50977c0,-0.55029 -0.44995,-1 -1,-1h-16.06836c-0.5498,0 -1,0.44971 -1,1v7.50977h-4v-16.48047c0,-0.5498 -0.44995,-1 -1,-1h-13.63086c-0.55005,0 -1,0.4502 -1,1v16.48047h-4v-36.96094c0,-0.5498 -0.44995,-1 -1,-1h-16.92969v-4h36.56055c0.55005,0 1,-0.4502 1,-1v-15.66992c0,-0.5498 -0.44995,-1 -1,-1zM48.92969,1.99805c-0.5498,0 -1,0.4502 -1,1v15.66992c0,0.5498 0.4502,1 1,1h16.06836c0.55005,0 1,-0.4502 1,-1v-15.66992c0,-0.5498 -0.44995,-1 -1,-1zM49.92969,3.99805h14.06836v13.66992h-14.06836zM29.29883,23.66797c-0.55005,0 -1,0.4502 -1,1v14.48047c0,0.55029 0.44995,1 1,1h13.63086c0.55005,0 1,-0.44971 1,-1v-14.48047c0,-0.5498 -0.44995,-1 -1,-1zM48.92969,23.66797c-0.5498,0 -1,0.4502 -1,1v23.45117c0,0.5498 0.4502,1 1,1h16.06836c0.55005,0 1,-0.4502 1,-1v-23.45117c0,-0.5498 -0.44995,-1 -1,-1zM30.29883,25.66797h11.63086v12.48047h-11.63086zM30.29883,46.14844h11.63086v15.48047h-11.63086z"></path></g></g></svg>